<svg width="788.0" height="375.20000000000005" viewBox="0 0 788.0 375.20000000000005" class="keymap"
  xmlns="http://www.w3.org/2000/svg" xmlns:xlink="http://www.w3.org/1999/xlink">
  <style>/* inherit to force styles through use tags*/
    svg path {
    fill: inherit;
    }
    /* font and background color specifications */
    svg.keymap {
    font-family: SFMono-Regular,Consolas,Liberation Mono,Menlo,monospace;
    font-size: 14px;
    font-kerning: normal;
    text-rendering: optimizeLegibility;
    fill: #24292e;
    }

    /* default key styling */
    rect.key {
    fill: #f6f8fa;
    stroke: #c9cccf;
    stroke-width: 1;
    }

    /* color accent for combo boxes */
    rect.combo {
    fill: #cdf;
    }

    /* color accent for held keys */
    rect.held, rect.combo.held {
    fill: #fdd;
    }

    /* color accent for ghost (optional) keys */
    rect.ghost, rect.combo.ghost {
    fill: #ddd;
    }

    text {
    text-anchor: middle;
    dominant-baseline: middle;
    }

    /* styling for layer labels */
    text.label {
    font-weight: bold;
    text-anchor: start;
    stroke: white;
    stroke-width: 2;
    paint-order: stroke;
    }

    /* styling for combo tap, and key hold/shifted label text */
    text.combo, text.hold, text.shifted {
    font-size: 11px;
    }

    text.hold {
    text-anchor: middle;
    dominant-baseline: auto;
    }

    text.shifted {
    text-anchor: middle;
    dominant-baseline: hanging;
    }

    /* styling for hold/shifted label text in combo box */
    text.combo.hold, text.combo.shifted {
    font-size: 8px;
    }

    /* lighter symbol for transparent keys */
    text.trans {
    fill: #7b7e81;
    }

    /* styling for combo dendrons */
    path.combo {
    stroke-width: 1;
    stroke: gray;
    fill: none;
    }

    /* Start Tabler Icons Cleanup */
    /* cannot use height/width with glyphs */
    .icon-tabler > path {
    fill: inherit;
    stroke: inherit;
    }
    /* hide tabler's default box */
    .icon-tabler > path[stroke="none"][fill="none"] {
    visibility: collapse;
    }
    /* End Tabler Icons Cleanup */
</style>
  <g class="layer-DEF">
    <text x="30.0" y="28.0" class="label">Caps:</text>
    <rect rx="6.0" ry="6.0" x="32.0" y="74.80000000000001" width="52.0" height="52.0" class="key" />
    <rect rx="6.0" ry="6.0" x="88.0" y="63.599999999999994" width="52.0" height="52.0" class="key" />
    <rect rx="6.0" ry="6.0" x="144.0" y="58.0" width="52.0" height="52.0" class="key" />
    <rect rx="6.0" ry="6.0" x="200.0" y="63.599999999999994" width="52.0" height="52.0" class="key" />
    <rect rx="6.0" ry="6.0" x="256.0" y="69.19999999999999" width="52.0" height="52.0" class="key" />
    <rect rx="6.0" ry="6.0" x="480.0" y="69.19999999999999" width="52.0" height="52.0" class="key" />
    <rect rx="6.0" ry="6.0" x="536.0" y="63.599999999999994" width="52.0" height="52.0" class="key" />
    <rect rx="6.0" ry="6.0" x="592.0" y="58.0" width="52.0" height="52.0" class="key" />
    <rect rx="6.0" ry="6.0" x="648.0" y="63.599999999999994" width="52.0" height="52.0" class="key" />
    <rect rx="6.0" ry="6.0" x="704.0" y="74.80000000000001" width="52.0" height="52.0" class="key" />
    <rect rx="6.0" ry="6.0" x="32.0" y="130.8" width="52.0" height="52.0" class="key" />
    <rect rx="6.0" ry="6.0" x="88.0" y="119.60000000000002" width="52.0" height="52.0" class="key" />
    <rect rx="6.0" ry="6.0" x="144.0" y="114.0" width="52.0" height="52.0" class="key" />
    <rect rx="6.0" ry="6.0" x="200.0" y="119.60000000000002" width="52.0" height="52.0" class="key" />
    <rect rx="6.0" ry="6.0" x="256.0" y="125.19999999999999" width="52.0" height="52.0" class="key" />
    <rect rx="6.0" ry="6.0" x="480.0" y="125.19999999999999" width="52.0" height="52.0" class="key" />
    <rect rx="6.0" ry="6.0" x="536.0" y="119.60000000000002" width="52.0" height="52.0" class="key" />
    <rect rx="6.0" ry="6.0" x="592.0" y="114.0" width="52.0" height="52.0" class="key" />
    <rect rx="6.0" ry="6.0" x="648.0" y="119.60000000000002" width="52.0" height="52.0" class="key" />
    <rect rx="6.0" ry="6.0" x="704.0" y="130.8" width="52.0" height="52.0" class="key" />
    <rect rx="6.0" ry="6.0" x="32.0" y="186.79999999999998" width="52.0" height="52.0" class="key" />
    <rect rx="6.0" ry="6.0" x="88.0" y="175.6" width="52.0" height="52.0" class="key" />
    <rect rx="6.0" ry="6.0" x="144.0" y="170.0" width="52.0" height="52.0" class="key" />
    <rect rx="6.0" ry="6.0" x="200.0" y="175.6" width="52.0" height="52.0" class="key" />
    <rect rx="6.0" ry="6.0" x="256.0" y="181.20000000000002" width="52.0" height="52.0" class="key" />
    <rect rx="6.0" ry="6.0" x="480.0" y="181.20000000000002" width="52.0" height="52.0" class="key" />
    <rect rx="6.0" ry="6.0" x="536.0" y="175.6" width="52.0" height="52.0" class="key" />
    <rect rx="6.0" ry="6.0" x="592.0" y="170.0" width="52.0" height="52.0" class="key" />
    <rect rx="6.0" ry="6.0" x="648.0" y="175.6" width="52.0" height="52.0" class="key" />
    <rect rx="6.0" ry="6.0" x="704.0" y="186.79999999999998" width="52.0" height="52.0" class="key" />
    <rect rx="6.0" ry="6.0" x="200.0" y="265.20000000000005" width="52.0" height="52.0" class="key" />
    <rect rx="6.0" ry="6.0" x="256.0" y="265.20000000000005" width="52.0" height="52.0" class="key" />
    <rect rx="6.0" ry="6.0" x="312.0" y="237.20000000000005" width="52.0" height="80.0" class="key" />
    <rect rx="6.0" ry="6.0" x="424.0" y="237.20000000000005" width="52.0" height="80.0" class="key" />
    <rect rx="6.0" ry="6.0" x="480.0" y="265.20000000000005" width="52.0" height="52.0" class="key" />
    <rect rx="6.0" ry="6.0" x="536.0" y="265.20000000000005" width="52.0" height="52.0" class="key" />
    <path d="M394.0,145.60000000000002 l-149.33333333333331,0.0" class="combo" />
    <path d="M394.0,145.60000000000002 l149.33333333333331,0.0" class="combo" />
    <rect rx="6.0" ry="6.0" x="380.0" y="132.60000000000002" width="28.0" height="26.0"
      class="combo" />
    <text x="394.0" y="145.60000000000002" class="combo tap">
      <tspan x="394.0" dy="-0.6em">CAPS</tspan>
      <tspan x="394.0" dy="1.2em">LOCK</tspan>
    </text>
  </g>
</svg>
