<svg width="788.0" height="375.20000000000005" viewBox="0 0 788.0 375.20000000000005" class="keymap"
  xmlns="http://www.w3.org/2000/svg" xmlns:xlink="http://www.w3.org/1999/xlink">
  <style>/* inherit to force styles through use tags*/
    svg path {
    fill: inherit;
    }
    /* font and background color specifications */
    svg.keymap {
    font-family: SFMono-Regular,Consolas,Liberation Mono,Menlo,monospace;
    font-size: 14px;
    font-kerning: normal;
    text-rendering: optimizeLegibility;
    fill: #24292e;
    }

    /* default key styling */
    rect.key {
    fill: #f6f8fa;
    stroke: #c9cccf;
    stroke-width: 1;
    }

    /* color accent for combo boxes */
    rect.combo {
    fill: #cdf;
    }

    /* color accent for held keys */
    rect.held, rect.combo.held {
    fill: #fdd;
    }

    /* color accent for ghost (optional) keys */
    rect.ghost, rect.combo.ghost {
    fill: #ddd;
    }

    text {
    text-anchor: middle;
    dominant-baseline: middle;
    }

    /* styling for layer labels */
    text.label {
    font-weight: bold;
    text-anchor: start;
    stroke: white;
    stroke-width: 2;
    paint-order: stroke;
    }

    /* styling for combo tap, and key hold/shifted label text */
    text.combo, text.hold, text.shifted {
    font-size: 11px;
    }

    text.hold {
    text-anchor: middle;
    dominant-baseline: auto;
    }

    text.shifted {
    text-anchor: middle;
    dominant-baseline: hanging;
    }

    /* styling for hold/shifted label text in combo box */
    text.combo.hold, text.combo.shifted {
    font-size: 8px;
    }

    /* lighter symbol for transparent keys */
    text.trans {
    fill: #7b7e81;
    }

    /* styling for combo dendrons */
    path.combo {
    stroke-width: 1;
    stroke: gray;
    fill: none;
    }

    /* Start Tabler Icons Cleanup */
    /* cannot use height/width with glyphs */
    .icon-tabler > path {
    fill: inherit;
    stroke: inherit;
    }
    /* hide tabler's default box */
    .icon-tabler > path[stroke="none"][fill="none"] {
    visibility: collapse;
    }
    /* End Tabler Icons Cleanup */
</style>
  <g class="layer-DEF">
    <text x="30.0" y="28.0" class="label">Symbols:</text>
    <rect rx="6.0" ry="6.0" x="32.0" y="74.80000000000001" width="52.0" height="52.0" class="key" />
    <rect rx="6.0" ry="6.0" x="88.0" y="63.599999999999994" width="52.0" height="52.0" class="key" />
    <rect rx="6.0" ry="6.0" x="144.0" y="58.0" width="52.0" height="52.0" class="key" />
    <rect rx="6.0" ry="6.0" x="200.0" y="63.599999999999994" width="52.0" height="52.0" class="key" />
    <rect rx="6.0" ry="6.0" x="256.0" y="69.19999999999999" width="52.0" height="52.0" class="key" />
    <rect rx="6.0" ry="6.0" x="480.0" y="69.19999999999999" width="52.0" height="52.0" class="key" />
    <rect rx="6.0" ry="6.0" x="536.0" y="63.599999999999994" width="52.0" height="52.0" class="key" />
    <rect rx="6.0" ry="6.0" x="592.0" y="58.0" width="52.0" height="52.0" class="key" />
    <rect rx="6.0" ry="6.0" x="648.0" y="63.599999999999994" width="52.0" height="52.0" class="key" />
    <rect rx="6.0" ry="6.0" x="704.0" y="74.80000000000001" width="52.0" height="52.0" class="key" />
    <rect rx="6.0" ry="6.0" x="32.0" y="130.8" width="52.0" height="52.0" class="key" />
    <rect rx="6.0" ry="6.0" x="88.0" y="119.60000000000002" width="52.0" height="52.0" class="key" />
    <rect rx="6.0" ry="6.0" x="144.0" y="114.0" width="52.0" height="52.0" class="key" />
    <rect rx="6.0" ry="6.0" x="200.0" y="119.60000000000002" width="52.0" height="52.0" class="key" />
    <rect rx="6.0" ry="6.0" x="256.0" y="125.19999999999999" width="52.0" height="52.0" class="key" />
    <rect rx="6.0" ry="6.0" x="480.0" y="125.19999999999999" width="52.0" height="52.0" class="key" />
    <rect rx="6.0" ry="6.0" x="536.0" y="119.60000000000002" width="52.0" height="52.0" class="key" />
    <rect rx="6.0" ry="6.0" x="592.0" y="114.0" width="52.0" height="52.0" class="key" />
    <rect rx="6.0" ry="6.0" x="648.0" y="119.60000000000002" width="52.0" height="52.0" class="key" />
    <rect rx="6.0" ry="6.0" x="704.0" y="130.8" width="52.0" height="52.0" class="key" />
    <rect rx="6.0" ry="6.0" x="32.0" y="186.79999999999998" width="52.0" height="52.0" class="key" />
    <rect rx="6.0" ry="6.0" x="88.0" y="175.6" width="52.0" height="52.0" class="key" />
    <rect rx="6.0" ry="6.0" x="144.0" y="170.0" width="52.0" height="52.0" class="key" />
    <rect rx="6.0" ry="6.0" x="200.0" y="175.6" width="52.0" height="52.0" class="key" />
    <rect rx="6.0" ry="6.0" x="256.0" y="181.20000000000002" width="52.0" height="52.0" class="key" />
    <rect rx="6.0" ry="6.0" x="480.0" y="181.20000000000002" width="52.0" height="52.0" class="key" />
    <rect rx="6.0" ry="6.0" x="536.0" y="175.6" width="52.0" height="52.0" class="key" />
    <rect rx="6.0" ry="6.0" x="592.0" y="170.0" width="52.0" height="52.0" class="key" />
    <rect rx="6.0" ry="6.0" x="648.0" y="175.6" width="52.0" height="52.0" class="key" />
    <rect rx="6.0" ry="6.0" x="704.0" y="186.79999999999998" width="52.0" height="52.0" class="key" />
    <rect rx="6.0" ry="6.0" x="200.0" y="265.20000000000005" width="52.0" height="52.0" class="key" />
    <rect rx="6.0" ry="6.0" x="256.0" y="265.20000000000005" width="52.0" height="52.0" class="key" />
    <rect rx="6.0" ry="6.0" x="312.0" y="237.20000000000005" width="52.0" height="80.0" class="key" />
    <rect rx="6.0" ry="6.0" x="424.0" y="237.20000000000005" width="52.0" height="80.0" class="key" />
    <rect rx="6.0" ry="6.0" x="480.0" y="265.20000000000005" width="52.0" height="52.0" class="key" />
    <rect rx="6.0" ry="6.0" x="536.0" y="265.20000000000005" width="52.0" height="52.0" class="key" />
    <rect rx="6.0" ry="6.0" x="632.0" y="129.8" width="28.0" height="26.0" class="combo" />
    <text x="646.0" y="142.8" class="combo tap">]</text>
    <rect rx="6.0" ry="6.0" x="576.0" y="129.8" width="28.0" height="26.0" class="combo" />
    <text x="590.0" y="142.8" class="combo tap">[</text>
    <rect rx="6.0" ry="6.0" x="576.0" y="73.8" width="28.0" height="26.0" class="combo" />
    <text x="590.0" y="86.8" class="combo tap">(</text>
    <rect rx="6.0" ry="6.0" x="632.0" y="73.8" width="28.0" height="26.0" class="combo" />
    <text x="646.0" y="86.8" class="combo tap">)</text>
    <rect rx="6.0" ry="6.0" x="576.0" y="185.8" width="28.0" height="26.0" class="combo" />
    <text x="590.0" y="198.8" class="combo tap">{</text>
    <rect rx="6.0" ry="6.0" x="632.0" y="185.8" width="28.0" height="26.0" class="combo" />
    <text x="646.0" y="198.8" class="combo tap">}</text>
    <rect rx="6.0" ry="6.0" x="688.0" y="82.2" width="28.0" height="26.0" class="combo" />
    <text x="702.0" y="95.2" class="combo tap">=</text>
    <rect rx="6.0" ry="6.0" x="688.0" y="82.2" width="28.0" height="26.0" class="combo" />
    <text x="702.0" y="95.2" class="combo tap">-</text>
    <rect rx="6.0" ry="6.0" x="688.0" y="138.2" width="28.0" height="26.0" class="combo" />
    <text x="702.0" y="151.2" class="combo tap">&#x27;</text>
    <rect rx="6.0" ry="6.0" x="688.0" y="194.2" width="28.0" height="26.0" class="combo" />
    <text x="702.0" y="207.2" class="combo tap">\</text>
    <rect rx="6.0" ry="6.0" x="520.0" y="135.4" width="28.0" height="26.0" class="combo" />
    <text x="534.0" y="148.4" class="combo tap">&amp;</text>
    <rect rx="6.0" ry="6.0" x="72.0" y="82.2" width="28.0" height="26.0" class="combo" />
    <text x="86.0" y="95.2" class="combo tap">`</text>
    <rect rx="6.0" ry="6.0" x="128.0" y="73.8" width="28.0" height="26.0" class="combo" />
    <text x="142.0" y="86.8" class="combo tap">!</text>
    <rect rx="6.0" ry="6.0" x="184.0" y="73.8" width="28.0" height="26.0" class="combo" />
    <text x="198.0" y="86.8" class="combo tap">@</text>
    <rect rx="6.0" ry="6.0" x="240.0" y="79.4" width="28.0" height="26.0" class="combo" />
    <text x="254.0" y="92.4" class="combo tap">#</text>
    <rect rx="6.0" ry="6.0" x="72.0" y="138.2" width="28.0" height="26.0" class="combo" />
    <text x="86.0" y="151.2" class="combo tap">^</text>
    <rect rx="6.0" ry="6.0" x="184.0" y="129.8" width="28.0" height="26.0" class="combo" />
    <text x="198.0" y="142.8" class="combo tap">$</text>
    <rect rx="6.0" ry="6.0" x="128.0" y="129.8" width="28.0" height="26.0" class="combo" />
    <text x="142.0" y="142.8" class="combo tap">€</text>
    <rect rx="6.0" ry="6.0" x="464.0" y="271.20000000000005" width="28.0" height="26.0"
      class="combo" />
    <text x="478.0" y="284.20000000000005" class="combo tap">FN_R</text>
    <text x="478.0" y="295.20000000000005" class="combo hold">sticky</text>
    <rect rx="6.0" ry="6.0" x="296.0" y="271.20000000000005" width="28.0" height="26.0"
      class="combo" />
    <text x="310.0" y="284.20000000000005" class="combo tap">FN_L</text>
    <text x="310.0" y="295.20000000000005" class="combo hold">sticky</text>
  </g>
</svg>
